<svg width="71" height="24" viewBox="0 0 71 24" fill="none" xmlns="http://www.w3.org/2000/svg">
<rect width="71" height="24" fill="#1E1E1E"/>
<path d="M8.64325 18.616L0.83525 11.256L8.64325 3.864H12.0673L4.22725 11.256L12.0673 18.616H8.64325ZM26.692 23.384C24.4947 23.384 22.596 22.904 20.996 21.944C19.4173 20.9627 18.1907 19.608 17.316 17.88C16.4413 16.1307 16.004 14.104 16.004 11.8C16.004 9.51733 16.4413 7.512 17.316 5.784C18.1907 4.03467 19.4173 2.66933 20.996 1.688C22.596 0.706666 24.4947 0.216 26.692 0.216C29.252 0.216 31.332 0.834666 32.932 2.072C34.5533 3.288 35.588 4.99467 36.036 7.192H33.06C32.7187 5.80533 32.0147 4.696 30.948 3.864C29.9027 3.01067 28.484 2.584 26.692 2.584C25.092 2.584 23.6947 2.95733 22.5 3.704C21.3053 4.42933 20.3773 5.48533 19.716 6.872C19.076 8.23733 18.756 9.88 18.756 11.8C18.756 13.72 19.076 15.3733 19.716 16.76C20.3773 18.1253 21.3053 19.1813 22.5 19.928C23.6947 20.6533 25.092 21.016 26.692 21.016C28.484 21.016 29.9027 20.6107 30.948 19.8C32.0147 18.968 32.7187 17.8693 33.06 16.504H36.036C35.588 18.6587 34.5533 20.344 32.932 21.56C31.332 22.776 29.252 23.384 26.692 23.384ZM39.8993 23V0.599998H47.1313C48.8806 0.599998 50.3099 0.887999 51.4193 1.464C52.5286 2.04 53.3499 2.82933 53.8833 3.832C54.4166 4.83467 54.6833 5.944 54.6833 7.16C54.6833 8.568 54.2993 9.83733 53.5312 10.968C52.7846 12.0987 51.6113 12.8987 50.0113 13.368L54.9073 23H51.7393L47.1953 13.752H47.0033H42.5873V23H39.8993ZM42.5873 11.64H46.9392C48.6673 11.64 49.9259 11.224 50.7153 10.392C51.5046 9.56 51.8993 8.49333 51.8993 7.192C51.8993 5.86933 51.5046 4.824 50.7153 4.056C49.9473 3.26667 48.6779 2.872 46.9073 2.872H42.5873V11.64ZM58.932 18.616L66.772 11.256L58.932 3.864H62.356L70.164 11.256L62.356 18.616H58.932Z" fill="#303030"/>
</svg>
